<?xml version="1.0" encoding="UTF-8"?>
<mxfile host="app.diagrams.net" agent="Mozilla/5.0 (Windows NT 10.0; Win64; x64) AppleWebKit/537.36 (KHTML, like Gecko) Chrome/131.0.0.0 Safari/537.36" version="25.0.3">
  <diagram name="Страница — 1" id="mXfc7mX9J_T137BnNwb-">
    <mxGraphModel dx="2074" dy="790" grid="1" gridSize="10" guides="1" tooltips="1" connect="1" arrows="1" fold="1" page="0" pageScale="1" pageWidth="827" pageHeight="1169" math="0" shadow="0">
      <root>
        <mxCell id="0" />
        <mxCell id="1" parent="0" />
        <mxCell id="OMYQMFD3v74kMcFGxbSG-1" style="edgeStyle=orthogonalEdgeStyle;rounded=0;orthogonalLoop=1;jettySize=auto;html=1;endArrow=block;endFill=0;" parent="1" source="OMYQMFD3v74kMcFGxbSG-2" target="OMYQMFD3v74kMcFGxbSG-14" edge="1">
          <mxGeometry relative="1" as="geometry" />
        </mxCell>
        <mxCell id="OMYQMFD3v74kMcFGxbSG-2" value="&lt;span style=&quot;font-weight: 400;&quot;&gt;Student&lt;/span&gt;" style="swimlane;fontStyle=1;align=center;verticalAlign=top;childLayout=stackLayout;horizontal=1;startSize=26;horizontalStack=0;resizeParent=1;resizeParentMax=0;resizeLast=0;collapsible=1;marginBottom=0;whiteSpace=wrap;html=1;" parent="1" vertex="1">
          <mxGeometry x="370" y="10" width="210" height="294" as="geometry" />
        </mxCell>
        <mxCell id="OMYQMFD3v74kMcFGxbSG-3" value="+id: Int" style="text;strokeColor=none;fillColor=none;align=left;verticalAlign=top;spacingLeft=4;spacingRight=4;overflow=hidden;rotatable=0;points=[[0,0.5],[1,0.5]];portConstraint=eastwest;whiteSpace=wrap;html=1;" parent="OMYQMFD3v74kMcFGxbSG-2" vertex="1">
          <mxGeometry y="26" width="210" height="26" as="geometry" />
        </mxCell>
        <mxCell id="OMYQMFD3v74kMcFGxbSG-4" value="+surname: String" style="text;strokeColor=none;fillColor=none;align=left;verticalAlign=top;spacingLeft=4;spacingRight=4;overflow=hidden;rotatable=0;points=[[0,0.5],[1,0.5]];portConstraint=eastwest;whiteSpace=wrap;html=1;" parent="OMYQMFD3v74kMcFGxbSG-2" vertex="1">
          <mxGeometry y="52" width="210" height="26" as="geometry" />
        </mxCell>
        <mxCell id="OMYQMFD3v74kMcFGxbSG-5" value="+name: String" style="text;strokeColor=none;fillColor=none;align=left;verticalAlign=top;spacingLeft=4;spacingRight=4;overflow=hidden;rotatable=0;points=[[0,0.5],[1,0.5]];portConstraint=eastwest;whiteSpace=wrap;html=1;" parent="OMYQMFD3v74kMcFGxbSG-2" vertex="1">
          <mxGeometry y="78" width="210" height="26" as="geometry" />
        </mxCell>
        <mxCell id="OMYQMFD3v74kMcFGxbSG-6" value="+patronymic: String" style="text;strokeColor=none;fillColor=none;align=left;verticalAlign=top;spacingLeft=4;spacingRight=4;overflow=hidden;rotatable=0;points=[[0,0.5],[1,0.5]];portConstraint=eastwest;whiteSpace=wrap;html=1;" parent="OMYQMFD3v74kMcFGxbSG-2" vertex="1">
          <mxGeometry y="104" width="210" height="26" as="geometry" />
        </mxCell>
        <mxCell id="OMYQMFD3v74kMcFGxbSG-7" value="+tg: String?" style="text;strokeColor=none;fillColor=none;align=left;verticalAlign=top;spacingLeft=4;spacingRight=4;overflow=hidden;rotatable=0;points=[[0,0.5],[1,0.5]];portConstraint=eastwest;whiteSpace=wrap;html=1;" parent="OMYQMFD3v74kMcFGxbSG-2" vertex="1">
          <mxGeometry y="130" width="210" height="26" as="geometry" />
        </mxCell>
        <mxCell id="OMYQMFD3v74kMcFGxbSG-8" value="+git: String?" style="text;strokeColor=none;fillColor=none;align=left;verticalAlign=top;spacingLeft=4;spacingRight=4;overflow=hidden;rotatable=0;points=[[0,0.5],[1,0.5]];portConstraint=eastwest;whiteSpace=wrap;html=1;" parent="OMYQMFD3v74kMcFGxbSG-2" vertex="1">
          <mxGeometry y="156" width="210" height="26" as="geometry" />
        </mxCell>
        <mxCell id="OMYQMFD3v74kMcFGxbSG-9" value="+email: String?" style="text;strokeColor=none;fillColor=none;align=left;verticalAlign=top;spacingLeft=4;spacingRight=4;overflow=hidden;rotatable=0;points=[[0,0.5],[1,0.5]];portConstraint=eastwest;whiteSpace=wrap;html=1;" parent="OMYQMFD3v74kMcFGxbSG-2" vertex="1">
          <mxGeometry y="182" width="210" height="26" as="geometry" />
        </mxCell>
        <mxCell id="OMYQMFD3v74kMcFGxbSG-10" value="+phone: String?" style="text;strokeColor=none;fillColor=none;align=left;verticalAlign=top;spacingLeft=4;spacingRight=4;overflow=hidden;rotatable=0;points=[[0,0.5],[1,0.5]];portConstraint=eastwest;whiteSpace=wrap;html=1;" parent="OMYQMFD3v74kMcFGxbSG-2" vertex="1">
          <mxGeometry y="208" width="210" height="26" as="geometry" />
        </mxCell>
        <mxCell id="OMYQMFD3v74kMcFGxbSG-11" value="" style="line;strokeWidth=1;fillColor=none;align=left;verticalAlign=middle;spacingTop=-1;spacingLeft=3;spacingRight=3;rotatable=0;labelPosition=right;points=[];portConstraint=eastwest;strokeColor=inherit;" parent="OMYQMFD3v74kMcFGxbSG-2" vertex="1">
          <mxGeometry y="234" width="210" height="8" as="geometry" />
        </mxCell>
        <mxCell id="OMYQMFD3v74kMcFGxbSG-12" value="&lt;div&gt;+getContact(): String&lt;br&gt;&lt;/div&gt;" style="text;strokeColor=none;fillColor=none;align=left;verticalAlign=top;spacingLeft=4;spacingRight=4;overflow=hidden;rotatable=0;points=[[0,0.5],[1,0.5]];portConstraint=eastwest;whiteSpace=wrap;html=1;" parent="OMYQMFD3v74kMcFGxbSG-2" vertex="1">
          <mxGeometry y="242" width="210" height="26" as="geometry" />
        </mxCell>
        <mxCell id="OMYQMFD3v74kMcFGxbSG-13" value="+getInfo(): String" style="text;strokeColor=none;fillColor=none;align=left;verticalAlign=top;spacingLeft=4;spacingRight=4;overflow=hidden;rotatable=0;points=[[0,0.5],[1,0.5]];portConstraint=eastwest;whiteSpace=wrap;html=1;" parent="OMYQMFD3v74kMcFGxbSG-2" vertex="1">
          <mxGeometry y="268" width="210" height="26" as="geometry" />
        </mxCell>
        <mxCell id="OMYQMFD3v74kMcFGxbSG-14" value="&lt;span style=&quot;font-weight: 400;&quot;&gt;StudentBase&lt;/span&gt;" style="swimlane;fontStyle=1;align=center;verticalAlign=top;childLayout=stackLayout;horizontal=1;startSize=26;horizontalStack=0;resizeParent=1;resizeParentMax=0;resizeLast=0;collapsible=1;marginBottom=0;whiteSpace=wrap;html=1;" parent="1" vertex="1">
          <mxGeometry x="10" y="10" width="240" height="564" as="geometry" />
        </mxCell>
        <mxCell id="OMYQMFD3v74kMcFGxbSG-15" value="+id: Int" style="text;strokeColor=none;fillColor=none;align=left;verticalAlign=top;spacingLeft=4;spacingRight=4;overflow=hidden;rotatable=0;points=[[0,0.5],[1,0.5]];portConstraint=eastwest;whiteSpace=wrap;html=1;" parent="OMYQMFD3v74kMcFGxbSG-14" vertex="1">
          <mxGeometry y="26" width="240" height="26" as="geometry" />
        </mxCell>
        <mxCell id="OMYQMFD3v74kMcFGxbSG-16" value="+surname: String" style="text;strokeColor=none;fillColor=none;align=left;verticalAlign=top;spacingLeft=4;spacingRight=4;overflow=hidden;rotatable=0;points=[[0,0.5],[1,0.5]];portConstraint=eastwest;whiteSpace=wrap;html=1;" parent="OMYQMFD3v74kMcFGxbSG-14" vertex="1">
          <mxGeometry y="52" width="240" height="26" as="geometry" />
        </mxCell>
        <mxCell id="OMYQMFD3v74kMcFGxbSG-17" value="+name: String" style="text;strokeColor=none;fillColor=none;align=left;verticalAlign=top;spacingLeft=4;spacingRight=4;overflow=hidden;rotatable=0;points=[[0,0.5],[1,0.5]];portConstraint=eastwest;whiteSpace=wrap;html=1;" parent="OMYQMFD3v74kMcFGxbSG-14" vertex="1">
          <mxGeometry y="78" width="240" height="26" as="geometry" />
        </mxCell>
        <mxCell id="OMYQMFD3v74kMcFGxbSG-18" value="+patronymic: String" style="text;strokeColor=none;fillColor=none;align=left;verticalAlign=top;spacingLeft=4;spacingRight=4;overflow=hidden;rotatable=0;points=[[0,0.5],[1,0.5]];portConstraint=eastwest;whiteSpace=wrap;html=1;" parent="OMYQMFD3v74kMcFGxbSG-14" vertex="1">
          <mxGeometry y="104" width="240" height="26" as="geometry" />
        </mxCell>
        <mxCell id="OMYQMFD3v74kMcFGxbSG-19" value="+tg: String?" style="text;strokeColor=none;fillColor=none;align=left;verticalAlign=top;spacingLeft=4;spacingRight=4;overflow=hidden;rotatable=0;points=[[0,0.5],[1,0.5]];portConstraint=eastwest;whiteSpace=wrap;html=1;" parent="OMYQMFD3v74kMcFGxbSG-14" vertex="1">
          <mxGeometry y="130" width="240" height="26" as="geometry" />
        </mxCell>
        <mxCell id="OMYQMFD3v74kMcFGxbSG-20" value="+git: String?" style="text;strokeColor=none;fillColor=none;align=left;verticalAlign=top;spacingLeft=4;spacingRight=4;overflow=hidden;rotatable=0;points=[[0,0.5],[1,0.5]];portConstraint=eastwest;whiteSpace=wrap;html=1;" parent="OMYQMFD3v74kMcFGxbSG-14" vertex="1">
          <mxGeometry y="156" width="240" height="26" as="geometry" />
        </mxCell>
        <mxCell id="OMYQMFD3v74kMcFGxbSG-21" value="+email: String?" style="text;strokeColor=none;fillColor=none;align=left;verticalAlign=top;spacingLeft=4;spacingRight=4;overflow=hidden;rotatable=0;points=[[0,0.5],[1,0.5]];portConstraint=eastwest;whiteSpace=wrap;html=1;" parent="OMYQMFD3v74kMcFGxbSG-14" vertex="1">
          <mxGeometry y="182" width="240" height="26" as="geometry" />
        </mxCell>
        <mxCell id="OMYQMFD3v74kMcFGxbSG-22" value="+phone: String?" style="text;strokeColor=none;fillColor=none;align=left;verticalAlign=top;spacingLeft=4;spacingRight=4;overflow=hidden;rotatable=0;points=[[0,0.5],[1,0.5]];portConstraint=eastwest;whiteSpace=wrap;html=1;" parent="OMYQMFD3v74kMcFGxbSG-14" vertex="1">
          <mxGeometry y="208" width="240" height="26" as="geometry" />
        </mxCell>
        <mxCell id="OMYQMFD3v74kMcFGxbSG-23" value="" style="line;strokeWidth=1;fillColor=none;align=left;verticalAlign=middle;spacingTop=-1;spacingLeft=3;spacingRight=3;rotatable=0;labelPosition=right;points=[];portConstraint=eastwest;strokeColor=inherit;" parent="OMYQMFD3v74kMcFGxbSG-14" vertex="1">
          <mxGeometry y="234" width="240" height="8" as="geometry" />
        </mxCell>
        <mxCell id="OMYQMFD3v74kMcFGxbSG-24" value="&lt;div&gt;+isValidPhone(phone: String): Boolean&lt;br&gt;&lt;/div&gt;" style="text;strokeColor=none;fillColor=none;align=left;verticalAlign=top;spacingLeft=4;spacingRight=4;overflow=hidden;rotatable=0;points=[[0,0.5],[1,0.5]];portConstraint=eastwest;whiteSpace=wrap;html=1;" parent="OMYQMFD3v74kMcFGxbSG-14" vertex="1">
          <mxGeometry y="242" width="240" height="26" as="geometry" />
        </mxCell>
        <mxCell id="OMYQMFD3v74kMcFGxbSG-25" value="+isValidText(text: String): Boolean" style="text;strokeColor=none;fillColor=none;align=left;verticalAlign=top;spacingLeft=4;spacingRight=4;overflow=hidden;rotatable=0;points=[[0,0.5],[1,0.5]];portConstraint=eastwest;whiteSpace=wrap;html=1;" parent="OMYQMFD3v74kMcFGxbSG-14" vertex="1">
          <mxGeometry y="268" width="240" height="26" as="geometry" />
        </mxCell>
        <mxCell id="OMYQMFD3v74kMcFGxbSG-26" value="+isValidTg(tg: String): Boolean" style="text;strokeColor=none;fillColor=none;align=left;verticalAlign=top;spacingLeft=4;spacingRight=4;overflow=hidden;rotatable=0;points=[[0,0.5],[1,0.5]];portConstraint=eastwest;whiteSpace=wrap;html=1;" parent="OMYQMFD3v74kMcFGxbSG-14" vertex="1">
          <mxGeometry y="294" width="240" height="26" as="geometry" />
        </mxCell>
        <mxCell id="OMYQMFD3v74kMcFGxbSG-27" value="+isValidGit(git: String): Boolean" style="text;strokeColor=none;fillColor=none;align=left;verticalAlign=top;spacingLeft=4;spacingRight=4;overflow=hidden;rotatable=0;points=[[0,0.5],[1,0.5]];portConstraint=eastwest;whiteSpace=wrap;html=1;" parent="OMYQMFD3v74kMcFGxbSG-14" vertex="1">
          <mxGeometry y="320" width="240" height="26" as="geometry" />
        </mxCell>
        <mxCell id="OMYQMFD3v74kMcFGxbSG-28" value="+isValidEmail(email: String): Boolean" style="text;strokeColor=none;fillColor=none;align=left;verticalAlign=top;spacingLeft=4;spacingRight=4;overflow=hidden;rotatable=0;points=[[0,0.5],[1,0.5]];portConstraint=eastwest;whiteSpace=wrap;html=1;" parent="OMYQMFD3v74kMcFGxbSG-14" vertex="1">
          <mxGeometry y="346" width="240" height="26" as="geometry" />
        </mxCell>
        <mxCell id="OMYQMFD3v74kMcFGxbSG-29" value="+optValidate()" style="text;strokeColor=none;fillColor=none;align=left;verticalAlign=top;spacingLeft=4;spacingRight=4;overflow=hidden;rotatable=0;points=[[0,0.5],[1,0.5]];portConstraint=eastwest;whiteSpace=wrap;html=1;" parent="OMYQMFD3v74kMcFGxbSG-14" vertex="1">
          <mxGeometry y="372" width="240" height="26" as="geometry" />
        </mxCell>
        <mxCell id="OMYQMFD3v74kMcFGxbSG-30" value="+validate()" style="text;strokeColor=none;fillColor=none;align=left;verticalAlign=top;spacingLeft=4;spacingRight=4;overflow=hidden;rotatable=0;points=[[0,0.5],[1,0.5]];portConstraint=eastwest;whiteSpace=wrap;html=1;" parent="OMYQMFD3v74kMcFGxbSG-14" vertex="1">
          <mxGeometry y="398" width="240" height="26" as="geometry" />
        </mxCell>
        <mxCell id="OMYQMFD3v74kMcFGxbSG-31" value="+setContacts(tg: String?, git: String?, email: String?, phone: String?)" style="text;strokeColor=none;fillColor=none;align=left;verticalAlign=top;spacingLeft=4;spacingRight=4;overflow=hidden;rotatable=0;points=[[0,0.5],[1,0.5]];portConstraint=eastwest;whiteSpace=wrap;html=1;" parent="OMYQMFD3v74kMcFGxbSG-14" vertex="1">
          <mxGeometry y="424" width="240" height="36" as="geometry" />
        </mxCell>
        <mxCell id="OMYQMFD3v74kMcFGxbSG-32" value="+getIn(): String" style="text;strokeColor=none;fillColor=none;align=left;verticalAlign=top;spacingLeft=4;spacingRight=4;overflow=hidden;rotatable=0;points=[[0,0.5],[1,0.5]];portConstraint=eastwest;whiteSpace=wrap;html=1;" parent="OMYQMFD3v74kMcFGxbSG-14" vertex="1">
          <mxGeometry y="460" width="240" height="26" as="geometry" />
        </mxCell>
        <mxCell id="OMYQMFD3v74kMcFGxbSG-33" value="+anyContact(): Boolean" style="text;strokeColor=none;fillColor=none;align=left;verticalAlign=top;spacingLeft=4;spacingRight=4;overflow=hidden;rotatable=0;points=[[0,0.5],[1,0.5]];portConstraint=eastwest;whiteSpace=wrap;html=1;" parent="OMYQMFD3v74kMcFGxbSG-14" vertex="1">
          <mxGeometry y="486" width="240" height="26" as="geometry" />
        </mxCell>
        <mxCell id="OMYQMFD3v74kMcFGxbSG-34" value="+toString(): String" style="text;strokeColor=none;fillColor=none;align=left;verticalAlign=top;spacingLeft=4;spacingRight=4;overflow=hidden;rotatable=0;points=[[0,0.5],[1,0.5]];portConstraint=eastwest;whiteSpace=wrap;html=1;" parent="OMYQMFD3v74kMcFGxbSG-14" vertex="1">
          <mxGeometry y="512" width="240" height="26" as="geometry" />
        </mxCell>
        <mxCell id="OMYQMFD3v74kMcFGxbSG-35" value="+write()&amp;nbsp;" style="text;strokeColor=none;fillColor=none;align=left;verticalAlign=top;spacingLeft=4;spacingRight=4;overflow=hidden;rotatable=0;points=[[0,0.5],[1,0.5]];portConstraint=eastwest;whiteSpace=wrap;html=1;" parent="OMYQMFD3v74kMcFGxbSG-14" vertex="1">
          <mxGeometry y="538" width="240" height="26" as="geometry" />
        </mxCell>
        <mxCell id="OMYQMFD3v74kMcFGxbSG-36" style="edgeStyle=orthogonalEdgeStyle;rounded=0;orthogonalLoop=1;jettySize=auto;html=1;endArrow=block;endFill=0;" parent="1" source="OMYQMFD3v74kMcFGxbSG-37" target="OMYQMFD3v74kMcFGxbSG-14" edge="1">
          <mxGeometry relative="1" as="geometry" />
        </mxCell>
        <mxCell id="OMYQMFD3v74kMcFGxbSG-37" value="&lt;span style=&quot;font-weight: 400;&quot;&gt;Student_short&lt;/span&gt;" style="swimlane;fontStyle=1;align=center;verticalAlign=top;childLayout=stackLayout;horizontal=1;startSize=26;horizontalStack=0;resizeParent=1;resizeParentMax=0;resizeLast=0;collapsible=1;marginBottom=0;whiteSpace=wrap;html=1;" parent="1" vertex="1">
          <mxGeometry x="370" y="340" width="210" height="216" as="geometry" />
        </mxCell>
        <mxCell id="OMYQMFD3v74kMcFGxbSG-38" value="+id: Int" style="text;strokeColor=none;fillColor=none;align=left;verticalAlign=top;spacingLeft=4;spacingRight=4;overflow=hidden;rotatable=0;points=[[0,0.5],[1,0.5]];portConstraint=eastwest;whiteSpace=wrap;html=1;" parent="OMYQMFD3v74kMcFGxbSG-37" vertex="1">
          <mxGeometry y="26" width="210" height="26" as="geometry" />
        </mxCell>
        <mxCell id="OMYQMFD3v74kMcFGxbSG-39" value="+surnameIn: String" style="text;strokeColor=none;fillColor=none;align=left;verticalAlign=top;spacingLeft=4;spacingRight=4;overflow=hidden;rotatable=0;points=[[0,0.5],[1,0.5]];portConstraint=eastwest;whiteSpace=wrap;html=1;" parent="OMYQMFD3v74kMcFGxbSG-37" vertex="1">
          <mxGeometry y="52" width="210" height="26" as="geometry" />
        </mxCell>
        <mxCell id="OMYQMFD3v74kMcFGxbSG-40" value="+git: String" style="text;strokeColor=none;fillColor=none;align=left;verticalAlign=top;spacingLeft=4;spacingRight=4;overflow=hidden;rotatable=0;points=[[0,0.5],[1,0.5]];portConstraint=eastwest;whiteSpace=wrap;html=1;" parent="OMYQMFD3v74kMcFGxbSG-37" vertex="1">
          <mxGeometry y="78" width="210" height="26" as="geometry" />
        </mxCell>
        <mxCell id="OMYQMFD3v74kMcFGxbSG-41" value="+contact: String" style="text;strokeColor=none;fillColor=none;align=left;verticalAlign=top;spacingLeft=4;spacingRight=4;overflow=hidden;rotatable=0;points=[[0,0.5],[1,0.5]];portConstraint=eastwest;whiteSpace=wrap;html=1;" parent="OMYQMFD3v74kMcFGxbSG-37" vertex="1">
          <mxGeometry y="104" width="210" height="26" as="geometry" />
        </mxCell>
        <mxCell id="OMYQMFD3v74kMcFGxbSG-42" value="" style="line;strokeWidth=1;fillColor=none;align=left;verticalAlign=middle;spacingTop=-1;spacingLeft=3;spacingRight=3;rotatable=0;labelPosition=right;points=[];portConstraint=eastwest;strokeColor=inherit;" parent="OMYQMFD3v74kMcFGxbSG-37" vertex="1">
          <mxGeometry y="130" width="210" height="8" as="geometry" />
        </mxCell>
        <mxCell id="OMYQMFD3v74kMcFGxbSG-43" value="&lt;div&gt;+optValidate()&lt;br&gt;&lt;/div&gt;" style="text;strokeColor=none;fillColor=none;align=left;verticalAlign=top;spacingLeft=4;spacingRight=4;overflow=hidden;rotatable=0;points=[[0,0.5],[1,0.5]];portConstraint=eastwest;whiteSpace=wrap;html=1;" parent="OMYQMFD3v74kMcFGxbSG-37" vertex="1">
          <mxGeometry y="138" width="210" height="26" as="geometry" />
        </mxCell>
        <mxCell id="OMYQMFD3v74kMcFGxbSG-44" value="+isValidIn(text: String): Boolean" style="text;strokeColor=none;fillColor=none;align=left;verticalAlign=top;spacingLeft=4;spacingRight=4;overflow=hidden;rotatable=0;points=[[0,0.5],[1,0.5]];portConstraint=eastwest;whiteSpace=wrap;html=1;" parent="OMYQMFD3v74kMcFGxbSG-37" vertex="1">
          <mxGeometry y="164" width="210" height="26" as="geometry" />
        </mxCell>
        <mxCell id="OMYQMFD3v74kMcFGxbSG-45" value="+writeShort()" style="text;strokeColor=none;fillColor=none;align=left;verticalAlign=top;spacingLeft=4;spacingRight=4;overflow=hidden;rotatable=0;points=[[0,0.5],[1,0.5]];portConstraint=eastwest;whiteSpace=wrap;html=1;" parent="OMYQMFD3v74kMcFGxbSG-37" vertex="1">
          <mxGeometry y="190" width="210" height="26" as="geometry" />
        </mxCell>
        <mxCell id="OMYQMFD3v74kMcFGxbSG-46" value="&lt;span style=&quot;font-weight: 400;&quot;&gt;Data_table&lt;/span&gt;" style="swimlane;fontStyle=1;align=center;verticalAlign=top;childLayout=stackLayout;horizontal=1;startSize=26;horizontalStack=0;resizeParent=1;resizeParentMax=0;resizeLast=0;collapsible=1;marginBottom=0;whiteSpace=wrap;html=1;" parent="1" vertex="1">
          <mxGeometry x="30" y="610" width="210" height="164" as="geometry" />
        </mxCell>
        <mxCell id="OMYQMFD3v74kMcFGxbSG-47" value="-data: Array&amp;lt;Array&amp;lt;T&amp;gt;&amp;gt;" style="text;strokeColor=none;fillColor=none;align=left;verticalAlign=top;spacingLeft=4;spacingRight=4;overflow=hidden;rotatable=0;points=[[0,0.5],[1,0.5]];portConstraint=eastwest;whiteSpace=wrap;html=1;" parent="OMYQMFD3v74kMcFGxbSG-46" vertex="1">
          <mxGeometry y="26" width="210" height="26" as="geometry" />
        </mxCell>
        <mxCell id="OMYQMFD3v74kMcFGxbSG-48" value="" style="line;strokeWidth=1;fillColor=none;align=left;verticalAlign=middle;spacingTop=-1;spacingLeft=3;spacingRight=3;rotatable=0;labelPosition=right;points=[];portConstraint=eastwest;strokeColor=inherit;" parent="OMYQMFD3v74kMcFGxbSG-46" vertex="1">
          <mxGeometry y="52" width="210" height="8" as="geometry" />
        </mxCell>
        <mxCell id="OMYQMFD3v74kMcFGxbSG-49" value="&lt;div&gt;+getElem(row: Int, column: Int): T&lt;br&gt;&lt;/div&gt;" style="text;strokeColor=none;fillColor=none;align=left;verticalAlign=top;spacingLeft=4;spacingRight=4;overflow=hidden;rotatable=0;points=[[0,0.5],[1,0.5]];portConstraint=eastwest;whiteSpace=wrap;html=1;" parent="OMYQMFD3v74kMcFGxbSG-46" vertex="1">
          <mxGeometry y="60" width="210" height="26" as="geometry" />
        </mxCell>
        <mxCell id="OMYQMFD3v74kMcFGxbSG-50" value="+getColumnCount(): Int" style="text;strokeColor=none;fillColor=none;align=left;verticalAlign=top;spacingLeft=4;spacingRight=4;overflow=hidden;rotatable=0;points=[[0,0.5],[1,0.5]];portConstraint=eastwest;whiteSpace=wrap;html=1;" parent="OMYQMFD3v74kMcFGxbSG-46" vertex="1">
          <mxGeometry y="86" width="210" height="26" as="geometry" />
        </mxCell>
        <mxCell id="OMYQMFD3v74kMcFGxbSG-51" value="+getRowCount(): Int" style="text;strokeColor=none;fillColor=none;align=left;verticalAlign=top;spacingLeft=4;spacingRight=4;overflow=hidden;rotatable=0;points=[[0,0.5],[1,0.5]];portConstraint=eastwest;whiteSpace=wrap;html=1;" parent="OMYQMFD3v74kMcFGxbSG-46" vertex="1">
          <mxGeometry y="112" width="210" height="26" as="geometry" />
        </mxCell>
        <mxCell id="OMYQMFD3v74kMcFGxbSG-52" value="+toString(): String" style="text;strokeColor=none;fillColor=none;align=left;verticalAlign=top;spacingLeft=4;spacingRight=4;overflow=hidden;rotatable=0;points=[[0,0.5],[1,0.5]];portConstraint=eastwest;whiteSpace=wrap;html=1;" parent="OMYQMFD3v74kMcFGxbSG-46" vertex="1">
          <mxGeometry y="138" width="210" height="26" as="geometry" />
        </mxCell>
        <mxCell id="OMYQMFD3v74kMcFGxbSG-53" value="&lt;span style=&quot;font-weight: 400;&quot;&gt;Data_list&lt;/span&gt;" style="swimlane;fontStyle=1;align=center;verticalAlign=top;childLayout=stackLayout;horizontal=1;startSize=26;horizontalStack=0;resizeParent=1;resizeParentMax=0;resizeLast=0;collapsible=1;marginBottom=0;whiteSpace=wrap;html=1;" parent="1" vertex="1">
          <mxGeometry x="350" y="670" width="220" height="242" as="geometry" />
        </mxCell>
        <mxCell id="OMYQMFD3v74kMcFGxbSG-54" value="-elements: Array&amp;lt;T&amp;gt;&amp;nbsp;" style="text;strokeColor=none;fillColor=none;align=left;verticalAlign=top;spacingLeft=4;spacingRight=4;overflow=hidden;rotatable=0;points=[[0,0.5],[1,0.5]];portConstraint=eastwest;whiteSpace=wrap;html=1;" parent="OMYQMFD3v74kMcFGxbSG-53" vertex="1">
          <mxGeometry y="26" width="220" height="26" as="geometry" />
        </mxCell>
        <mxCell id="OMYQMFD3v74kMcFGxbSG-55" value="-selected: MutableSet&amp;lt;Int&amp;gt;" style="text;strokeColor=none;fillColor=none;align=left;verticalAlign=top;spacingLeft=4;spacingRight=4;overflow=hidden;rotatable=0;points=[[0,0.5],[1,0.5]];portConstraint=eastwest;whiteSpace=wrap;html=1;" parent="OMYQMFD3v74kMcFGxbSG-53" vertex="1">
          <mxGeometry y="52" width="220" height="26" as="geometry" />
        </mxCell>
        <mxCell id="OMYQMFD3v74kMcFGxbSG-56" value="" style="line;strokeWidth=1;fillColor=none;align=left;verticalAlign=middle;spacingTop=-1;spacingLeft=3;spacingRight=3;rotatable=0;labelPosition=right;points=[];portConstraint=eastwest;strokeColor=inherit;" parent="OMYQMFD3v74kMcFGxbSG-53" vertex="1">
          <mxGeometry y="78" width="220" height="8" as="geometry" />
        </mxCell>
        <mxCell id="OMYQMFD3v74kMcFGxbSG-57" value="&lt;div&gt;+select(number: Int)&lt;br&gt;&lt;/div&gt;" style="text;strokeColor=none;fillColor=none;align=left;verticalAlign=top;spacingLeft=4;spacingRight=4;overflow=hidden;rotatable=0;points=[[0,0.5],[1,0.5]];portConstraint=eastwest;whiteSpace=wrap;html=1;" parent="OMYQMFD3v74kMcFGxbSG-53" vertex="1">
          <mxGeometry y="86" width="220" height="26" as="geometry" />
        </mxCell>
        <mxCell id="OMYQMFD3v74kMcFGxbSG-58" value="+getSelected(): IntArray" style="text;strokeColor=none;fillColor=none;align=left;verticalAlign=top;spacingLeft=4;spacingRight=4;overflow=hidden;rotatable=0;points=[[0,0.5],[1,0.5]];portConstraint=eastwest;whiteSpace=wrap;html=1;" parent="OMYQMFD3v74kMcFGxbSG-53" vertex="1">
          <mxGeometry y="112" width="220" height="26" as="geometry" />
        </mxCell>
        <mxCell id="OMYQMFD3v74kMcFGxbSG-59" value="+buildNames(): Array&amp;lt;String&amp;gt;" style="text;strokeColor=none;fillColor=none;align=left;verticalAlign=top;spacingLeft=4;spacingRight=4;overflow=hidden;rotatable=0;points=[[0,0.5],[1,0.5]];portConstraint=eastwest;whiteSpace=wrap;html=1;" parent="OMYQMFD3v74kMcFGxbSG-53" vertex="1">
          <mxGeometry y="138" width="220" height="26" as="geometry" />
        </mxCell>
        <mxCell id="OMYQMFD3v74kMcFGxbSG-60" value="+buildData(): Data_table&amp;lt;Any&amp;gt;" style="text;strokeColor=none;fillColor=none;align=left;verticalAlign=top;spacingLeft=4;spacingRight=4;overflow=hidden;rotatable=0;points=[[0,0.5],[1,0.5]];portConstraint=eastwest;whiteSpace=wrap;html=1;" parent="OMYQMFD3v74kMcFGxbSG-53" vertex="1">
          <mxGeometry y="164" width="220" height="26" as="geometry" />
        </mxCell>
        <mxCell id="OMYQMFD3v74kMcFGxbSG-61" value="#abstract getNames(): Array&amp;lt;String&amp;gt;" style="text;strokeColor=none;fillColor=none;align=left;verticalAlign=top;spacingLeft=4;spacingRight=4;overflow=hidden;rotatable=0;points=[[0,0.5],[1,0.5]];portConstraint=eastwest;whiteSpace=wrap;html=1;" parent="OMYQMFD3v74kMcFGxbSG-53" vertex="1">
          <mxGeometry y="190" width="220" height="26" as="geometry" />
        </mxCell>
        <mxCell id="OMYQMFD3v74kMcFGxbSG-62" value="#abstract getData(item: T): Array&amp;lt;Any&amp;gt;" style="text;strokeColor=none;fillColor=none;align=left;verticalAlign=top;spacingLeft=4;spacingRight=4;overflow=hidden;rotatable=0;points=[[0,0.5],[1,0.5]];portConstraint=eastwest;whiteSpace=wrap;html=1;" parent="OMYQMFD3v74kMcFGxbSG-53" vertex="1">
          <mxGeometry y="216" width="220" height="26" as="geometry" />
        </mxCell>
        <mxCell id="OMYQMFD3v74kMcFGxbSG-63" style="edgeStyle=orthogonalEdgeStyle;rounded=0;orthogonalLoop=1;jettySize=auto;html=1;endArrow=block;endFill=0;" parent="1" source="OMYQMFD3v74kMcFGxbSG-64" target="OMYQMFD3v74kMcFGxbSG-53" edge="1">
          <mxGeometry relative="1" as="geometry">
            <mxPoint x="290" y="930" as="sourcePoint" />
            <mxPoint x="330" y="790" as="targetPoint" />
            <Array as="points">
              <mxPoint x="290" y="860" />
              <mxPoint x="290" y="790" />
            </Array>
          </mxGeometry>
        </mxCell>
        <mxCell id="OMYQMFD3v74kMcFGxbSG-64" value="&lt;span style=&quot;font-weight: 400;&quot;&gt;Data_list_student_short&lt;/span&gt;" style="swimlane;fontStyle=1;align=center;verticalAlign=top;childLayout=stackLayout;horizontal=1;startSize=26;horizontalStack=0;resizeParent=1;resizeParentMax=0;resizeLast=0;collapsible=1;marginBottom=0;whiteSpace=wrap;html=1;" parent="1" vertex="1">
          <mxGeometry x="10" y="810" width="250" height="138" as="geometry" />
        </mxCell>
        <mxCell id="OMYQMFD3v74kMcFGxbSG-65" value="-elements: Array&amp;lt;T&amp;gt;&amp;nbsp;" style="text;strokeColor=none;fillColor=none;align=left;verticalAlign=top;spacingLeft=4;spacingRight=4;overflow=hidden;rotatable=0;points=[[0,0.5],[1,0.5]];portConstraint=eastwest;whiteSpace=wrap;html=1;" parent="OMYQMFD3v74kMcFGxbSG-64" vertex="1">
          <mxGeometry y="26" width="250" height="26" as="geometry" />
        </mxCell>
        <mxCell id="OMYQMFD3v74kMcFGxbSG-66" value="-selected: MutableSet&amp;lt;Int&amp;gt;" style="text;strokeColor=none;fillColor=none;align=left;verticalAlign=top;spacingLeft=4;spacingRight=4;overflow=hidden;rotatable=0;points=[[0,0.5],[1,0.5]];portConstraint=eastwest;whiteSpace=wrap;html=1;" parent="OMYQMFD3v74kMcFGxbSG-64" vertex="1">
          <mxGeometry y="52" width="250" height="26" as="geometry" />
        </mxCell>
        <mxCell id="OMYQMFD3v74kMcFGxbSG-67" value="" style="line;strokeWidth=1;fillColor=none;align=left;verticalAlign=middle;spacingTop=-1;spacingLeft=3;spacingRight=3;rotatable=0;labelPosition=right;points=[];portConstraint=eastwest;strokeColor=inherit;" parent="OMYQMFD3v74kMcFGxbSG-64" vertex="1">
          <mxGeometry y="78" width="250" height="8" as="geometry" />
        </mxCell>
        <mxCell id="OMYQMFD3v74kMcFGxbSG-68" value="+getNames(): Array&amp;lt;String&amp;gt;" style="text;strokeColor=none;fillColor=none;align=left;verticalAlign=top;spacingLeft=4;spacingRight=4;overflow=hidden;rotatable=0;points=[[0,0.5],[1,0.5]];portConstraint=eastwest;whiteSpace=wrap;html=1;" parent="OMYQMFD3v74kMcFGxbSG-64" vertex="1">
          <mxGeometry y="86" width="250" height="26" as="geometry" />
        </mxCell>
        <mxCell id="OMYQMFD3v74kMcFGxbSG-69" value="+getData(item: Student_short): Array&amp;lt;Any&amp;gt;" style="text;strokeColor=none;fillColor=none;align=left;verticalAlign=top;spacingLeft=4;spacingRight=4;overflow=hidden;rotatable=0;points=[[0,0.5],[1,0.5]];portConstraint=eastwest;whiteSpace=wrap;html=1;" parent="OMYQMFD3v74kMcFGxbSG-64" vertex="1">
          <mxGeometry y="112" width="250" height="26" as="geometry" />
        </mxCell>
        <mxCell id="OMYQMFD3v74kMcFGxbSG-70" value="&lt;span style=&quot;font-weight: 400; font-size: 12px;&quot;&gt;Student_list&lt;/span&gt;" style="swimlane;fontStyle=1;align=center;verticalAlign=top;childLayout=stackLayout;horizontal=1;startSize=26;horizontalStack=0;resizeParent=1;resizeParentMax=0;resizeLast=0;collapsible=1;marginBottom=0;whiteSpace=wrap;html=1;fontSize=12;fontColor=#000000;labelBackgroundColor=none;" parent="1" vertex="1">
          <mxGeometry x="930" y="150" width="240" height="356" as="geometry" />
        </mxCell>
        <mxCell id="OMYQMFD3v74kMcFGxbSG-71" value="-students: MutableList&amp;lt;Student&amp;gt;" style="text;strokeColor=none;fillColor=none;align=left;verticalAlign=top;spacingLeft=4;spacingRight=4;overflow=hidden;rotatable=0;points=[[0,0.5],[1,0.5]];portConstraint=eastwest;whiteSpace=wrap;html=1;fontSize=12;fontColor=#000000;labelBackgroundColor=none;" parent="OMYQMFD3v74kMcFGxbSG-70" vertex="1">
          <mxGeometry y="26" width="240" height="26" as="geometry" />
        </mxCell>
        <mxCell id="OMYQMFD3v74kMcFGxbSG-72" value="" style="line;strokeWidth=1;fillColor=none;align=left;verticalAlign=middle;spacingTop=-1;spacingLeft=3;spacingRight=3;rotatable=0;labelPosition=right;points=[];portConstraint=eastwest;strokeColor=inherit;fontSize=12;fontColor=#000000;labelBackgroundColor=none;" parent="OMYQMFD3v74kMcFGxbSG-70" vertex="1">
          <mxGeometry y="52" width="240" height="8" as="geometry" />
        </mxCell>
        <mxCell id="OMYQMFD3v74kMcFGxbSG-73" value="&lt;div style=&quot;font-size: 12px;&quot;&gt;&lt;span style=&quot;background-color: initial;&quot;&gt;#abstract&lt;/span&gt;&lt;span style=&quot;font-family: &amp;quot;Roboto Mono&amp;quot;, monospace; white-space-collapse: preserve; background-color: initial;&quot;&gt; readFromFile(path: String): MutableList&amp;lt;Student&amp;gt;&lt;/span&gt;&lt;/div&gt;" style="text;strokeColor=none;fillColor=none;align=left;verticalAlign=top;spacingLeft=4;spacingRight=4;overflow=hidden;rotatable=0;points=[[0,0.5],[1,0.5]];portConstraint=eastwest;whiteSpace=wrap;html=1;fontSize=12;fontColor=#000000;labelBackgroundColor=none;" parent="OMYQMFD3v74kMcFGxbSG-70" vertex="1">
          <mxGeometry y="60" width="240" height="40" as="geometry" />
        </mxCell>
        <mxCell id="OMYQMFD3v74kMcFGxbSG-74" value="#abstract&lt;span style=&quot;font-family: &amp;quot;Roboto Mono&amp;quot;, monospace; font-size: 12px; white-space-collapse: preserve;&quot;&gt; writeToFile(path: String)&lt;/span&gt;" style="text;strokeColor=none;fillColor=none;align=left;verticalAlign=top;spacingLeft=4;spacingRight=4;overflow=hidden;rotatable=0;points=[[0,0.5],[1,0.5]];portConstraint=eastwest;whiteSpace=wrap;html=1;fontSize=12;fontColor=#000000;labelBackgroundColor=none;" parent="OMYQMFD3v74kMcFGxbSG-70" vertex="1">
          <mxGeometry y="100" width="240" height="26" as="geometry" />
        </mxCell>
        <mxCell id="OMYQMFD3v74kMcFGxbSG-75" value="&lt;span style=&quot;font-family: &amp;quot;Roboto Mono&amp;quot;, monospace; font-size: 12px; white-space-collapse: preserve;&quot;&gt;+ findById(id: Int): Student&lt;/span&gt;" style="text;strokeColor=none;fillColor=none;align=left;verticalAlign=top;spacingLeft=4;spacingRight=4;overflow=hidden;rotatable=0;points=[[0,0.5],[1,0.5]];portConstraint=eastwest;whiteSpace=wrap;html=1;fontSize=12;fontColor=#000000;labelBackgroundColor=none;" parent="OMYQMFD3v74kMcFGxbSG-70" vertex="1">
          <mxGeometry y="126" width="240" height="26" as="geometry" />
        </mxCell>
        <mxCell id="OMYQMFD3v74kMcFGxbSG-76" value="&lt;span style=&quot;font-family: &amp;quot;Roboto Mono&amp;quot;, monospace; font-size: 12px; white-space-collapse: preserve;&quot;&gt;+ get_k_n_student_short_list(n: Int, k: Int): Data_list&amp;lt;Student_short&amp;gt;&lt;/span&gt;" style="text;strokeColor=none;fillColor=none;align=left;verticalAlign=top;spacingLeft=4;spacingRight=4;overflow=hidden;rotatable=0;points=[[0,0.5],[1,0.5]];portConstraint=eastwest;whiteSpace=wrap;html=1;fontSize=12;fontColor=#000000;labelBackgroundColor=none;" parent="OMYQMFD3v74kMcFGxbSG-70" vertex="1">
          <mxGeometry y="152" width="240" height="58" as="geometry" />
        </mxCell>
        <mxCell id="OMYQMFD3v74kMcFGxbSG-77" value="&lt;span style=&quot;font-family: &amp;quot;Roboto Mono&amp;quot;, monospace; font-size: 12px; white-space-collapse: preserve;&quot;&gt;+ orderStudents()&lt;/span&gt;" style="text;strokeColor=none;fillColor=none;align=left;verticalAlign=top;spacingLeft=4;spacingRight=4;overflow=hidden;rotatable=0;points=[[0,0.5],[1,0.5]];portConstraint=eastwest;whiteSpace=wrap;html=1;fontSize=12;fontColor=#000000;labelBackgroundColor=none;" parent="OMYQMFD3v74kMcFGxbSG-70" vertex="1">
          <mxGeometry y="210" width="240" height="26" as="geometry" />
        </mxCell>
        <mxCell id="OMYQMFD3v74kMcFGxbSG-78" value="&lt;span style=&quot;font-family: &amp;quot;Roboto Mono&amp;quot;, monospace; font-size: 12px; white-space-collapse: preserve;&quot;&gt;+ addStudent(newSt: Student)&lt;/span&gt;" style="text;strokeColor=none;fillColor=none;align=left;verticalAlign=top;spacingLeft=4;spacingRight=4;overflow=hidden;rotatable=0;points=[[0,0.5],[1,0.5]];portConstraint=eastwest;whiteSpace=wrap;html=1;fontSize=12;fontColor=#000000;labelBackgroundColor=none;" parent="OMYQMFD3v74kMcFGxbSG-70" vertex="1">
          <mxGeometry y="236" width="240" height="26" as="geometry" />
        </mxCell>
        <mxCell id="OMYQMFD3v74kMcFGxbSG-79" value="&lt;span style=&quot;font-family: &amp;quot;Roboto Mono&amp;quot;, monospace; font-size: 12px; white-space-collapse: preserve;&quot;&gt;+ replaceStudentById(id: Int, updSt: Student): Boolean&lt;/span&gt;" style="text;strokeColor=none;fillColor=none;align=left;verticalAlign=top;spacingLeft=4;spacingRight=4;overflow=hidden;rotatable=0;points=[[0,0.5],[1,0.5]];portConstraint=eastwest;whiteSpace=wrap;html=1;fontSize=12;fontColor=#000000;labelBackgroundColor=none;" parent="OMYQMFD3v74kMcFGxbSG-70" vertex="1">
          <mxGeometry y="262" width="240" height="38" as="geometry" />
        </mxCell>
        <mxCell id="OMYQMFD3v74kMcFGxbSG-80" value="&lt;span style=&quot;font-family: &amp;quot;Roboto Mono&amp;quot;, monospace; font-size: 12px; white-space-collapse: preserve;&quot;&gt;+ removeById(id: Int)&lt;/span&gt;" style="text;strokeColor=none;fillColor=none;align=left;verticalAlign=top;spacingLeft=4;spacingRight=4;overflow=hidden;rotatable=0;points=[[0,0.5],[1,0.5]];portConstraint=eastwest;whiteSpace=wrap;html=1;fontSize=12;fontColor=#000000;labelBackgroundColor=none;" parent="OMYQMFD3v74kMcFGxbSG-70" vertex="1">
          <mxGeometry y="300" width="240" height="30" as="geometry" />
        </mxCell>
        <mxCell id="OMYQMFD3v74kMcFGxbSG-81" value="&lt;span style=&quot;font-family: &amp;quot;Roboto Mono&amp;quot;, monospace; font-size: 12px; white-space-collapse: preserve;&quot;&gt;+ get_count(): Int&lt;/span&gt;" style="text;strokeColor=none;fillColor=none;align=left;verticalAlign=top;spacingLeft=4;spacingRight=4;overflow=hidden;rotatable=0;points=[[0,0.5],[1,0.5]];portConstraint=eastwest;whiteSpace=wrap;html=1;fontSize=12;fontColor=#000000;labelBackgroundColor=none;" parent="OMYQMFD3v74kMcFGxbSG-70" vertex="1">
          <mxGeometry y="330" width="240" height="26" as="geometry" />
        </mxCell>
        <mxCell id="OMYQMFD3v74kMcFGxbSG-82" style="edgeStyle=orthogonalEdgeStyle;rounded=0;orthogonalLoop=1;jettySize=auto;html=1;endArrow=block;endFill=0;" parent="1" source="OMYQMFD3v74kMcFGxbSG-83" target="OMYQMFD3v74kMcFGxbSG-70" edge="1">
          <mxGeometry relative="1" as="geometry">
            <Array as="points">
              <mxPoint x="1231" y="90" />
              <mxPoint x="1231" y="200" />
            </Array>
          </mxGeometry>
        </mxCell>
        <mxCell id="OMYQMFD3v74kMcFGxbSG-83" value="&lt;span style=&quot;font-weight: 400;&quot;&gt;Student_list_txt&lt;/span&gt;" style="swimlane;fontStyle=1;align=center;verticalAlign=top;childLayout=stackLayout;horizontal=1;startSize=26;horizontalStack=0;resizeParent=1;resizeParentMax=0;resizeLast=0;collapsible=1;marginBottom=0;whiteSpace=wrap;html=1;" parent="1" vertex="1">
          <mxGeometry x="1291" y="10" width="240" height="160" as="geometry" />
        </mxCell>
        <mxCell id="OMYQMFD3v74kMcFGxbSG-84" value="+ filePath: String" style="text;strokeColor=none;fillColor=none;align=left;verticalAlign=top;spacingLeft=4;spacingRight=4;overflow=hidden;rotatable=0;points=[[0,0.5],[1,0.5]];portConstraint=eastwest;whiteSpace=wrap;html=1;" parent="OMYQMFD3v74kMcFGxbSG-83" vertex="1">
          <mxGeometry y="26" width="240" height="26" as="geometry" />
        </mxCell>
        <mxCell id="OMYQMFD3v74kMcFGxbSG-85" value="" style="line;strokeWidth=1;fillColor=none;align=left;verticalAlign=middle;spacingTop=-1;spacingLeft=3;spacingRight=3;rotatable=0;labelPosition=right;points=[];portConstraint=eastwest;strokeColor=inherit;" parent="OMYQMFD3v74kMcFGxbSG-83" vertex="1">
          <mxGeometry y="52" width="240" height="8" as="geometry" />
        </mxCell>
        <mxCell id="OMYQMFD3v74kMcFGxbSG-86" value="+&amp;nbsp;&lt;span style=&quot;font-family: &amp;quot;Roboto Mono&amp;quot;, monospace; white-space-collapse: preserve;&quot;&gt;readFromFile(path: String): MutableList&amp;lt;Student&amp;gt;&lt;/span&gt;" style="text;strokeColor=none;fillColor=none;align=left;verticalAlign=top;spacingLeft=4;spacingRight=4;overflow=hidden;rotatable=0;points=[[0,0.5],[1,0.5]];portConstraint=eastwest;whiteSpace=wrap;html=1;" parent="OMYQMFD3v74kMcFGxbSG-83" vertex="1">
          <mxGeometry y="60" width="240" height="40" as="geometry" />
        </mxCell>
        <mxCell id="OMYQMFD3v74kMcFGxbSG-87" value="+&amp;nbsp;&lt;span style=&quot;font-family: &amp;quot;Roboto Mono&amp;quot;, monospace; white-space-collapse: preserve;&quot;&gt;writeToFile(path: String)&lt;/span&gt;" style="text;strokeColor=none;fillColor=none;align=left;verticalAlign=top;spacingLeft=4;spacingRight=4;overflow=hidden;rotatable=0;points=[[0,0.5],[1,0.5]];portConstraint=eastwest;whiteSpace=wrap;html=1;" parent="OMYQMFD3v74kMcFGxbSG-83" vertex="1">
          <mxGeometry y="100" width="240" height="26" as="geometry" />
        </mxCell>
        <mxCell id="OMYQMFD3v74kMcFGxbSG-88" value="- readFromTxt(path: String): MutableList&amp;lt;Student&amp;gt; (companion obj)" style="text;strokeColor=none;fillColor=none;align=left;verticalAlign=top;spacingLeft=4;spacingRight=4;overflow=hidden;rotatable=0;points=[[0,0.5],[1,0.5]];portConstraint=eastwest;whiteSpace=wrap;html=1;" parent="OMYQMFD3v74kMcFGxbSG-83" vertex="1">
          <mxGeometry y="126" width="240" height="34" as="geometry" />
        </mxCell>
        <mxCell id="OMYQMFD3v74kMcFGxbSG-89" style="edgeStyle=orthogonalEdgeStyle;rounded=0;orthogonalLoop=1;jettySize=auto;html=1;endArrow=block;endFill=0;" parent="1" source="OMYQMFD3v74kMcFGxbSG-90" target="OMYQMFD3v74kMcFGxbSG-70" edge="1">
          <mxGeometry relative="1" as="geometry">
            <Array as="points">
              <mxPoint x="1200" y="293" />
              <mxPoint x="1200" y="293" />
            </Array>
          </mxGeometry>
        </mxCell>
        <mxCell id="OMYQMFD3v74kMcFGxbSG-90" value="&lt;span style=&quot;font-weight: 400;&quot;&gt;Student_list_JSON&lt;/span&gt;" style="swimlane;fontStyle=1;align=center;verticalAlign=top;childLayout=stackLayout;horizontal=1;startSize=26;horizontalStack=0;resizeParent=1;resizeParentMax=0;resizeLast=0;collapsible=1;marginBottom=0;whiteSpace=wrap;html=1;" parent="1" vertex="1">
          <mxGeometry x="1291" y="200" width="240" height="186" as="geometry" />
        </mxCell>
        <mxCell id="OMYQMFD3v74kMcFGxbSG-91" value="+ filePath: String" style="text;strokeColor=none;fillColor=none;align=left;verticalAlign=top;spacingLeft=4;spacingRight=4;overflow=hidden;rotatable=0;points=[[0,0.5],[1,0.5]];portConstraint=eastwest;whiteSpace=wrap;html=1;" parent="OMYQMFD3v74kMcFGxbSG-90" vertex="1">
          <mxGeometry y="26" width="240" height="26" as="geometry" />
        </mxCell>
        <mxCell id="OMYQMFD3v74kMcFGxbSG-92" value="- gson: Gson" style="text;strokeColor=none;fillColor=none;align=left;verticalAlign=top;spacingLeft=4;spacingRight=4;overflow=hidden;rotatable=0;points=[[0,0.5],[1,0.5]];portConstraint=eastwest;whiteSpace=wrap;html=1;" parent="OMYQMFD3v74kMcFGxbSG-90" vertex="1">
          <mxGeometry y="52" width="240" height="26" as="geometry" />
        </mxCell>
        <mxCell id="OMYQMFD3v74kMcFGxbSG-93" value="" style="line;strokeWidth=1;fillColor=none;align=left;verticalAlign=middle;spacingTop=-1;spacingLeft=3;spacingRight=3;rotatable=0;labelPosition=right;points=[];portConstraint=eastwest;strokeColor=inherit;" parent="OMYQMFD3v74kMcFGxbSG-90" vertex="1">
          <mxGeometry y="78" width="240" height="8" as="geometry" />
        </mxCell>
        <mxCell id="OMYQMFD3v74kMcFGxbSG-94" value="+&amp;nbsp;&lt;span style=&quot;font-family: &amp;quot;Roboto Mono&amp;quot;, monospace; white-space-collapse: preserve;&quot;&gt;readFromFile(path: String): MutableList&amp;lt;Student&amp;gt;&lt;/span&gt;" style="text;strokeColor=none;fillColor=none;align=left;verticalAlign=top;spacingLeft=4;spacingRight=4;overflow=hidden;rotatable=0;points=[[0,0.5],[1,0.5]];portConstraint=eastwest;whiteSpace=wrap;html=1;" parent="OMYQMFD3v74kMcFGxbSG-90" vertex="1">
          <mxGeometry y="86" width="240" height="40" as="geometry" />
        </mxCell>
        <mxCell id="OMYQMFD3v74kMcFGxbSG-95" value="+&amp;nbsp;&lt;span style=&quot;font-family: &amp;quot;Roboto Mono&amp;quot;, monospace; white-space-collapse: preserve;&quot;&gt;writeToFile(path: String)&lt;/span&gt;" style="text;strokeColor=none;fillColor=none;align=left;verticalAlign=top;spacingLeft=4;spacingRight=4;overflow=hidden;rotatable=0;points=[[0,0.5],[1,0.5]];portConstraint=eastwest;whiteSpace=wrap;html=1;" parent="OMYQMFD3v74kMcFGxbSG-90" vertex="1">
          <mxGeometry y="126" width="240" height="26" as="geometry" />
        </mxCell>
        <mxCell id="OMYQMFD3v74kMcFGxbSG-96" value="- readFromJson(path: String): MutableList&amp;lt;Student&amp;gt; (companion obj)" style="text;strokeColor=none;fillColor=none;align=left;verticalAlign=top;spacingLeft=4;spacingRight=4;overflow=hidden;rotatable=0;points=[[0,0.5],[1,0.5]];portConstraint=eastwest;whiteSpace=wrap;html=1;" parent="OMYQMFD3v74kMcFGxbSG-90" vertex="1">
          <mxGeometry y="152" width="240" height="34" as="geometry" />
        </mxCell>
        <mxCell id="OMYQMFD3v74kMcFGxbSG-97" style="edgeStyle=orthogonalEdgeStyle;rounded=0;orthogonalLoop=1;jettySize=auto;html=1;endArrow=block;endFill=0;" parent="1" source="OMYQMFD3v74kMcFGxbSG-98" target="OMYQMFD3v74kMcFGxbSG-70" edge="1">
          <mxGeometry relative="1" as="geometry">
            <Array as="points">
              <mxPoint x="1231" y="507" />
              <mxPoint x="1231" y="410" />
            </Array>
          </mxGeometry>
        </mxCell>
        <mxCell id="OMYQMFD3v74kMcFGxbSG-98" value="&lt;span style=&quot;font-weight: 400;&quot;&gt;Student_list_YAML&lt;/span&gt;" style="swimlane;fontStyle=1;align=center;verticalAlign=top;childLayout=stackLayout;horizontal=1;startSize=26;horizontalStack=0;resizeParent=1;resizeParentMax=0;resizeLast=0;collapsible=1;marginBottom=0;whiteSpace=wrap;html=1;" parent="1" vertex="1">
          <mxGeometry x="1291" y="414" width="240" height="186" as="geometry" />
        </mxCell>
        <mxCell id="OMYQMFD3v74kMcFGxbSG-99" value="+ filePath: String" style="text;strokeColor=none;fillColor=none;align=left;verticalAlign=top;spacingLeft=4;spacingRight=4;overflow=hidden;rotatable=0;points=[[0,0.5],[1,0.5]];portConstraint=eastwest;whiteSpace=wrap;html=1;" parent="OMYQMFD3v74kMcFGxbSG-98" vertex="1">
          <mxGeometry y="26" width="240" height="26" as="geometry" />
        </mxCell>
        <mxCell id="OMYQMFD3v74kMcFGxbSG-100" value="- yaml: Yaml" style="text;strokeColor=none;fillColor=none;align=left;verticalAlign=top;spacingLeft=4;spacingRight=4;overflow=hidden;rotatable=0;points=[[0,0.5],[1,0.5]];portConstraint=eastwest;whiteSpace=wrap;html=1;" parent="OMYQMFD3v74kMcFGxbSG-98" vertex="1">
          <mxGeometry y="52" width="240" height="26" as="geometry" />
        </mxCell>
        <mxCell id="OMYQMFD3v74kMcFGxbSG-101" value="" style="line;strokeWidth=1;fillColor=none;align=left;verticalAlign=middle;spacingTop=-1;spacingLeft=3;spacingRight=3;rotatable=0;labelPosition=right;points=[];portConstraint=eastwest;strokeColor=inherit;" parent="OMYQMFD3v74kMcFGxbSG-98" vertex="1">
          <mxGeometry y="78" width="240" height="8" as="geometry" />
        </mxCell>
        <mxCell id="OMYQMFD3v74kMcFGxbSG-102" value="+&amp;nbsp;&lt;span style=&quot;font-family: &amp;quot;Roboto Mono&amp;quot;, monospace; white-space-collapse: preserve;&quot;&gt;readFromFile(path: String): MutableList&amp;lt;Student&amp;gt;&lt;/span&gt;" style="text;strokeColor=none;fillColor=none;align=left;verticalAlign=top;spacingLeft=4;spacingRight=4;overflow=hidden;rotatable=0;points=[[0,0.5],[1,0.5]];portConstraint=eastwest;whiteSpace=wrap;html=1;" parent="OMYQMFD3v74kMcFGxbSG-98" vertex="1">
          <mxGeometry y="86" width="240" height="40" as="geometry" />
        </mxCell>
        <mxCell id="OMYQMFD3v74kMcFGxbSG-103" value="+&amp;nbsp;&lt;span style=&quot;font-family: &amp;quot;Roboto Mono&amp;quot;, monospace; white-space-collapse: preserve;&quot;&gt;writeToFile(path: String)&lt;/span&gt;" style="text;strokeColor=none;fillColor=none;align=left;verticalAlign=top;spacingLeft=4;spacingRight=4;overflow=hidden;rotatable=0;points=[[0,0.5],[1,0.5]];portConstraint=eastwest;whiteSpace=wrap;html=1;" parent="OMYQMFD3v74kMcFGxbSG-98" vertex="1">
          <mxGeometry y="126" width="240" height="26" as="geometry" />
        </mxCell>
        <mxCell id="OMYQMFD3v74kMcFGxbSG-104" value="- readFromYaml(path: String): MutableList&amp;lt;Student&amp;gt; (companion obj)" style="text;strokeColor=none;fillColor=none;align=left;verticalAlign=top;spacingLeft=4;spacingRight=4;overflow=hidden;rotatable=0;points=[[0,0.5],[1,0.5]];portConstraint=eastwest;whiteSpace=wrap;html=1;" parent="OMYQMFD3v74kMcFGxbSG-98" vertex="1">
          <mxGeometry y="152" width="240" height="34" as="geometry" />
        </mxCell>
        <mxCell id="OMYQMFD3v74kMcFGxbSG-105" style="edgeStyle=orthogonalEdgeStyle;rounded=0;orthogonalLoop=1;jettySize=auto;html=1;endArrow=block;endFill=0;" parent="1" source="OMYQMFD3v74kMcFGxbSG-106" target="OMYQMFD3v74kMcFGxbSG-116" edge="1">
          <mxGeometry relative="1" as="geometry">
            <Array as="points">
              <mxPoint x="1420" y="680" />
              <mxPoint x="1420" y="680" />
            </Array>
          </mxGeometry>
        </mxCell>
        <mxCell id="OMYQMFD3v74kMcFGxbSG-106" value="&lt;span style=&quot;font-weight: 400;&quot;&gt;TxtFileStrategy&lt;/span&gt;" style="swimlane;fontStyle=1;align=center;verticalAlign=top;childLayout=stackLayout;horizontal=1;startSize=26;horizontalStack=0;resizeParent=1;resizeParentMax=0;resizeLast=0;collapsible=1;marginBottom=0;whiteSpace=wrap;html=1;" parent="1" vertex="1">
          <mxGeometry x="1780" y="670" width="240" height="98" as="geometry" />
        </mxCell>
        <mxCell id="OMYQMFD3v74kMcFGxbSG-107" value="+ write(path: String, students: MutableList&amp;lt;Student&amp;gt;)" style="text;strokeColor=none;fillColor=none;align=left;verticalAlign=top;spacingLeft=4;spacingRight=4;overflow=hidden;rotatable=0;points=[[0,0.5],[1,0.5]];portConstraint=eastwest;whiteSpace=wrap;html=1;" parent="OMYQMFD3v74kMcFGxbSG-106" vertex="1">
          <mxGeometry y="26" width="240" height="38" as="geometry" />
        </mxCell>
        <mxCell id="OMYQMFD3v74kMcFGxbSG-108" value="+ read(path: String): MutableList&amp;lt;Student&amp;gt;" style="text;strokeColor=none;fillColor=none;align=left;verticalAlign=top;spacingLeft=4;spacingRight=4;overflow=hidden;rotatable=0;points=[[0,0.5],[1,0.5]];portConstraint=eastwest;whiteSpace=wrap;html=1;" parent="OMYQMFD3v74kMcFGxbSG-106" vertex="1">
          <mxGeometry y="64" width="240" height="26" as="geometry" />
        </mxCell>
        <mxCell id="OMYQMFD3v74kMcFGxbSG-109" value="" style="line;strokeWidth=1;fillColor=none;align=left;verticalAlign=middle;spacingTop=-1;spacingLeft=3;spacingRight=3;rotatable=0;labelPosition=right;points=[];portConstraint=eastwest;strokeColor=inherit;" parent="OMYQMFD3v74kMcFGxbSG-106" vertex="1">
          <mxGeometry y="90" width="240" height="8" as="geometry" />
        </mxCell>
        <mxCell id="OMYQMFD3v74kMcFGxbSG-110" style="edgeStyle=orthogonalEdgeStyle;rounded=0;orthogonalLoop=1;jettySize=auto;html=1;endArrow=block;endFill=0;" parent="1" source="OMYQMFD3v74kMcFGxbSG-111" target="OMYQMFD3v74kMcFGxbSG-116" edge="1">
          <mxGeometry relative="1" as="geometry">
            <Array as="points">
              <mxPoint x="1510" y="750" />
            </Array>
          </mxGeometry>
        </mxCell>
        <mxCell id="OMYQMFD3v74kMcFGxbSG-111" value="&lt;span style=&quot;font-weight: 400;&quot;&gt;YamlFileStrategy&lt;/span&gt;" style="swimlane;fontStyle=1;align=center;verticalAlign=top;childLayout=stackLayout;horizontal=1;startSize=26;horizontalStack=0;resizeParent=1;resizeParentMax=0;resizeLast=0;collapsible=1;marginBottom=0;whiteSpace=wrap;html=1;" parent="1" vertex="1">
          <mxGeometry x="1490" y="830" width="240" height="124" as="geometry" />
        </mxCell>
        <mxCell id="OMYQMFD3v74kMcFGxbSG-112" value="+ read(path: String): MutableList&amp;lt;Student&amp;gt;" style="text;strokeColor=none;fillColor=none;align=left;verticalAlign=top;spacingLeft=4;spacingRight=4;overflow=hidden;rotatable=0;points=[[0,0.5],[1,0.5]];portConstraint=eastwest;whiteSpace=wrap;html=1;" parent="OMYQMFD3v74kMcFGxbSG-111" vertex="1">
          <mxGeometry y="26" width="240" height="26" as="geometry" />
        </mxCell>
        <mxCell id="OMYQMFD3v74kMcFGxbSG-113" value="+ write(path: String, students: MutableList&amp;lt;Student&amp;gt;)" style="text;strokeColor=none;fillColor=none;align=left;verticalAlign=top;spacingLeft=4;spacingRight=4;overflow=hidden;rotatable=0;points=[[0,0.5],[1,0.5]];portConstraint=eastwest;whiteSpace=wrap;html=1;" parent="OMYQMFD3v74kMcFGxbSG-111" vertex="1">
          <mxGeometry y="52" width="240" height="38" as="geometry" />
        </mxCell>
        <mxCell id="OMYQMFD3v74kMcFGxbSG-114" value="- yaml: Yaml" style="text;strokeColor=none;fillColor=none;align=left;verticalAlign=top;spacingLeft=4;spacingRight=4;overflow=hidden;rotatable=0;points=[[0,0.5],[1,0.5]];portConstraint=eastwest;whiteSpace=wrap;html=1;" parent="OMYQMFD3v74kMcFGxbSG-111" vertex="1">
          <mxGeometry y="90" width="240" height="26" as="geometry" />
        </mxCell>
        <mxCell id="OMYQMFD3v74kMcFGxbSG-115" value="" style="line;strokeWidth=1;fillColor=none;align=left;verticalAlign=middle;spacingTop=-1;spacingLeft=3;spacingRight=3;rotatable=0;labelPosition=right;points=[];portConstraint=eastwest;strokeColor=inherit;" parent="OMYQMFD3v74kMcFGxbSG-111" vertex="1">
          <mxGeometry y="116" width="240" height="8" as="geometry" />
        </mxCell>
        <mxCell id="OMYQMFD3v74kMcFGxbSG-116" value="&lt;span style=&quot;font-weight: 400;&quot;&gt;FileStrategy&lt;/span&gt;" style="swimlane;fontStyle=1;align=center;verticalAlign=top;childLayout=stackLayout;horizontal=1;startSize=26;horizontalStack=0;resizeParent=1;resizeParentMax=0;resizeLast=0;collapsible=1;marginBottom=0;whiteSpace=wrap;html=1;" parent="1" vertex="1">
          <mxGeometry x="1130" y="670" width="240" height="98" as="geometry">
            <mxRectangle x="850" y="908" width="100" height="30" as="alternateBounds" />
          </mxGeometry>
        </mxCell>
        <mxCell id="OMYQMFD3v74kMcFGxbSG-117" value="+ read(path: String): MutableList&amp;lt;Student&amp;gt;" style="text;strokeColor=none;fillColor=none;align=left;verticalAlign=top;spacingLeft=4;spacingRight=4;overflow=hidden;rotatable=0;points=[[0,0.5],[1,0.5]];portConstraint=eastwest;whiteSpace=wrap;html=1;" parent="OMYQMFD3v74kMcFGxbSG-116" vertex="1">
          <mxGeometry y="26" width="240" height="26" as="geometry" />
        </mxCell>
        <mxCell id="OMYQMFD3v74kMcFGxbSG-118" value="+ write(path: String, students: MutableList&amp;lt;Student&amp;gt;)" style="text;strokeColor=none;fillColor=none;align=left;verticalAlign=top;spacingLeft=4;spacingRight=4;overflow=hidden;rotatable=0;points=[[0,0.5],[1,0.5]];portConstraint=eastwest;whiteSpace=wrap;html=1;" parent="OMYQMFD3v74kMcFGxbSG-116" vertex="1">
          <mxGeometry y="52" width="240" height="38" as="geometry" />
        </mxCell>
        <mxCell id="OMYQMFD3v74kMcFGxbSG-119" value="" style="line;strokeWidth=1;fillColor=none;align=left;verticalAlign=middle;spacingTop=-1;spacingLeft=3;spacingRight=3;rotatable=0;labelPosition=right;points=[];portConstraint=eastwest;strokeColor=inherit;" parent="OMYQMFD3v74kMcFGxbSG-116" vertex="1">
          <mxGeometry y="90" width="240" height="8" as="geometry" />
        </mxCell>
        <mxCell id="OMYQMFD3v74kMcFGxbSG-120" style="edgeStyle=orthogonalEdgeStyle;rounded=0;orthogonalLoop=1;jettySize=auto;html=1;endArrow=block;endFill=0;" parent="1" source="OMYQMFD3v74kMcFGxbSG-121" target="OMYQMFD3v74kMcFGxbSG-116" edge="1">
          <mxGeometry relative="1" as="geometry">
            <Array as="points">
              <mxPoint x="1500" y="719" />
              <mxPoint x="1500" y="719" />
            </Array>
          </mxGeometry>
        </mxCell>
        <mxCell id="OMYQMFD3v74kMcFGxbSG-121" value="&lt;span style=&quot;font-weight: 400;&quot;&gt;JsonFileStrategy&lt;/span&gt;" style="swimlane;fontStyle=1;align=center;verticalAlign=top;childLayout=stackLayout;horizontal=1;startSize=26;horizontalStack=0;resizeParent=1;resizeParentMax=0;resizeLast=0;collapsible=1;marginBottom=0;whiteSpace=wrap;html=1;" parent="1" vertex="1">
          <mxGeometry x="1531" y="700" width="240" height="124" as="geometry" />
        </mxCell>
        <mxCell id="OMYQMFD3v74kMcFGxbSG-122" value="+ read(path: String): MutableList&amp;lt;Student&amp;gt;" style="text;strokeColor=none;fillColor=none;align=left;verticalAlign=top;spacingLeft=4;spacingRight=4;overflow=hidden;rotatable=0;points=[[0,0.5],[1,0.5]];portConstraint=eastwest;whiteSpace=wrap;html=1;" parent="OMYQMFD3v74kMcFGxbSG-121" vertex="1">
          <mxGeometry y="26" width="240" height="26" as="geometry" />
        </mxCell>
        <mxCell id="OMYQMFD3v74kMcFGxbSG-123" value="+ write(path: String, students: MutableList&amp;lt;Student&amp;gt;)" style="text;strokeColor=none;fillColor=none;align=left;verticalAlign=top;spacingLeft=4;spacingRight=4;overflow=hidden;rotatable=0;points=[[0,0.5],[1,0.5]];portConstraint=eastwest;whiteSpace=wrap;html=1;" parent="OMYQMFD3v74kMcFGxbSG-121" vertex="1">
          <mxGeometry y="52" width="240" height="38" as="geometry" />
        </mxCell>
        <mxCell id="OMYQMFD3v74kMcFGxbSG-124" value="- gson: Gson" style="text;strokeColor=none;fillColor=none;align=left;verticalAlign=top;spacingLeft=4;spacingRight=4;overflow=hidden;rotatable=0;points=[[0,0.5],[1,0.5]];portConstraint=eastwest;whiteSpace=wrap;html=1;" parent="OMYQMFD3v74kMcFGxbSG-121" vertex="1">
          <mxGeometry y="90" width="240" height="26" as="geometry" />
        </mxCell>
        <mxCell id="OMYQMFD3v74kMcFGxbSG-125" value="" style="line;strokeWidth=1;fillColor=none;align=left;verticalAlign=middle;spacingTop=-1;spacingLeft=3;spacingRight=3;rotatable=0;labelPosition=right;points=[];portConstraint=eastwest;strokeColor=inherit;" parent="OMYQMFD3v74kMcFGxbSG-121" vertex="1">
          <mxGeometry y="116" width="240" height="8" as="geometry" />
        </mxCell>
        <mxCell id="OMYQMFD3v74kMcFGxbSG-126" style="edgeStyle=orthogonalEdgeStyle;rounded=0;orthogonalLoop=1;jettySize=auto;html=1;endArrow=none;endFill=0;" parent="1" source="OMYQMFD3v74kMcFGxbSG-127" target="OMYQMFD3v74kMcFGxbSG-116" edge="1">
          <mxGeometry relative="1" as="geometry">
            <Array as="points">
              <mxPoint x="1000" y="699" />
            </Array>
          </mxGeometry>
        </mxCell>
        <mxCell id="OMYQMFD3v74kMcFGxbSG-127" value="&lt;span style=&quot;font-weight: 400; font-size: 12px;&quot;&gt;Student_list&lt;/span&gt;" style="swimlane;fontStyle=1;align=center;verticalAlign=top;childLayout=stackLayout;horizontal=1;startSize=26;horizontalStack=0;resizeParent=1;resizeParentMax=0;resizeLast=0;collapsible=1;marginBottom=0;whiteSpace=wrap;html=1;fontSize=12;fontColor=#000000;labelBackgroundColor=none;" parent="1" vertex="1">
          <mxGeometry x="870" y="768" width="240" height="382" as="geometry" />
        </mxCell>
        <mxCell id="OMYQMFD3v74kMcFGxbSG-128" value="-fileStrategy: FileStrategy" style="text;strokeColor=none;fillColor=none;align=left;verticalAlign=top;spacingLeft=4;spacingRight=4;overflow=hidden;rotatable=0;points=[[0,0.5],[1,0.5]];portConstraint=eastwest;whiteSpace=wrap;html=1;fontSize=12;fontColor=#000000;labelBackgroundColor=none;" parent="OMYQMFD3v74kMcFGxbSG-127" vertex="1">
          <mxGeometry y="26" width="240" height="26" as="geometry" />
        </mxCell>
        <mxCell id="OMYQMFD3v74kMcFGxbSG-129" value="-students: MutableList&amp;lt;Student&amp;gt;" style="text;strokeColor=none;fillColor=none;align=left;verticalAlign=top;spacingLeft=4;spacingRight=4;overflow=hidden;rotatable=0;points=[[0,0.5],[1,0.5]];portConstraint=eastwest;whiteSpace=wrap;html=1;fontSize=12;fontColor=#000000;labelBackgroundColor=none;" parent="OMYQMFD3v74kMcFGxbSG-127" vertex="1">
          <mxGeometry y="52" width="240" height="26" as="geometry" />
        </mxCell>
        <mxCell id="OMYQMFD3v74kMcFGxbSG-130" value="" style="line;strokeWidth=1;fillColor=none;align=left;verticalAlign=middle;spacingTop=-1;spacingLeft=3;spacingRight=3;rotatable=0;labelPosition=right;points=[];portConstraint=eastwest;strokeColor=inherit;fontSize=12;fontColor=#000000;labelBackgroundColor=none;" parent="OMYQMFD3v74kMcFGxbSG-127" vertex="1">
          <mxGeometry y="78" width="240" height="8" as="geometry" />
        </mxCell>
        <mxCell id="OMYQMFD3v74kMcFGxbSG-131" value="&lt;div style=&quot;font-size: 12px;&quot;&gt;&lt;span style=&quot;background-color: initial;&quot;&gt;+&lt;/span&gt;&lt;span style=&quot;font-family: &amp;quot;Roboto Mono&amp;quot;, monospace; white-space-collapse: preserve; background-color: initial;&quot;&gt; readFromFile(path: String): MutableList&amp;lt;Student&amp;gt;&lt;/span&gt;&lt;/div&gt;" style="text;strokeColor=none;fillColor=none;align=left;verticalAlign=top;spacingLeft=4;spacingRight=4;overflow=hidden;rotatable=0;points=[[0,0.5],[1,0.5]];portConstraint=eastwest;whiteSpace=wrap;html=1;fontSize=12;fontColor=#000000;labelBackgroundColor=none;" parent="OMYQMFD3v74kMcFGxbSG-127" vertex="1">
          <mxGeometry y="86" width="240" height="40" as="geometry" />
        </mxCell>
        <mxCell id="OMYQMFD3v74kMcFGxbSG-132" value="&lt;span style=&quot;font-size: 12px;&quot;&gt;+&amp;nbsp;&lt;/span&gt;&lt;span style=&quot;font-family: &amp;quot;Roboto Mono&amp;quot;, monospace; font-size: 12px; white-space-collapse: preserve;&quot;&gt;writeToFile(path: String)&lt;/span&gt;" style="text;strokeColor=none;fillColor=none;align=left;verticalAlign=top;spacingLeft=4;spacingRight=4;overflow=hidden;rotatable=0;points=[[0,0.5],[1,0.5]];portConstraint=eastwest;whiteSpace=wrap;html=1;fontSize=12;fontColor=#000000;labelBackgroundColor=none;" parent="OMYQMFD3v74kMcFGxbSG-127" vertex="1">
          <mxGeometry y="126" width="240" height="26" as="geometry" />
        </mxCell>
        <mxCell id="OMYQMFD3v74kMcFGxbSG-133" value="&lt;span style=&quot;font-family: &amp;quot;Roboto Mono&amp;quot;, monospace; font-size: 12px; white-space-collapse: preserve;&quot;&gt;+ findById(id: Int): Student&lt;/span&gt;" style="text;strokeColor=none;fillColor=none;align=left;verticalAlign=top;spacingLeft=4;spacingRight=4;overflow=hidden;rotatable=0;points=[[0,0.5],[1,0.5]];portConstraint=eastwest;whiteSpace=wrap;html=1;fontSize=12;fontColor=#000000;labelBackgroundColor=none;" parent="OMYQMFD3v74kMcFGxbSG-127" vertex="1">
          <mxGeometry y="152" width="240" height="26" as="geometry" />
        </mxCell>
        <mxCell id="OMYQMFD3v74kMcFGxbSG-134" value="&lt;span style=&quot;font-family: &amp;quot;Roboto Mono&amp;quot;, monospace; font-size: 12px; white-space-collapse: preserve;&quot;&gt;+ get_k_n_student_short_list(n: Int, k: Int): Data_list&amp;lt;Student_short&amp;gt;&lt;/span&gt;" style="text;strokeColor=none;fillColor=none;align=left;verticalAlign=top;spacingLeft=4;spacingRight=4;overflow=hidden;rotatable=0;points=[[0,0.5],[1,0.5]];portConstraint=eastwest;whiteSpace=wrap;html=1;fontSize=12;fontColor=#000000;labelBackgroundColor=none;" parent="OMYQMFD3v74kMcFGxbSG-127" vertex="1">
          <mxGeometry y="178" width="240" height="58" as="geometry" />
        </mxCell>
        <mxCell id="OMYQMFD3v74kMcFGxbSG-135" value="&lt;span style=&quot;font-family: &amp;quot;Roboto Mono&amp;quot;, monospace; font-size: 12px; white-space-collapse: preserve;&quot;&gt;+ orderStudents()&lt;/span&gt;" style="text;strokeColor=none;fillColor=none;align=left;verticalAlign=top;spacingLeft=4;spacingRight=4;overflow=hidden;rotatable=0;points=[[0,0.5],[1,0.5]];portConstraint=eastwest;whiteSpace=wrap;html=1;fontSize=12;fontColor=#000000;labelBackgroundColor=none;" parent="OMYQMFD3v74kMcFGxbSG-127" vertex="1">
          <mxGeometry y="236" width="240" height="26" as="geometry" />
        </mxCell>
        <mxCell id="OMYQMFD3v74kMcFGxbSG-136" value="&lt;span style=&quot;font-family: &amp;quot;Roboto Mono&amp;quot;, monospace; font-size: 12px; white-space-collapse: preserve;&quot;&gt;+ addStudent(newSt: Student)&lt;/span&gt;" style="text;strokeColor=none;fillColor=none;align=left;verticalAlign=top;spacingLeft=4;spacingRight=4;overflow=hidden;rotatable=0;points=[[0,0.5],[1,0.5]];portConstraint=eastwest;whiteSpace=wrap;html=1;fontSize=12;fontColor=#000000;labelBackgroundColor=none;" parent="OMYQMFD3v74kMcFGxbSG-127" vertex="1">
          <mxGeometry y="262" width="240" height="26" as="geometry" />
        </mxCell>
        <mxCell id="OMYQMFD3v74kMcFGxbSG-137" value="&lt;span style=&quot;font-family: &amp;quot;Roboto Mono&amp;quot;, monospace; font-size: 12px; white-space-collapse: preserve;&quot;&gt;+ replaceStudentById(id: Int, updSt: Student): Boolean&lt;/span&gt;" style="text;strokeColor=none;fillColor=none;align=left;verticalAlign=top;spacingLeft=4;spacingRight=4;overflow=hidden;rotatable=0;points=[[0,0.5],[1,0.5]];portConstraint=eastwest;whiteSpace=wrap;html=1;fontSize=12;fontColor=#000000;labelBackgroundColor=none;" parent="OMYQMFD3v74kMcFGxbSG-127" vertex="1">
          <mxGeometry y="288" width="240" height="38" as="geometry" />
        </mxCell>
        <mxCell id="OMYQMFD3v74kMcFGxbSG-138" value="&lt;span style=&quot;font-family: &amp;quot;Roboto Mono&amp;quot;, monospace; font-size: 12px; white-space-collapse: preserve;&quot;&gt;+ removeById(id: Int)&lt;/span&gt;" style="text;strokeColor=none;fillColor=none;align=left;verticalAlign=top;spacingLeft=4;spacingRight=4;overflow=hidden;rotatable=0;points=[[0,0.5],[1,0.5]];portConstraint=eastwest;whiteSpace=wrap;html=1;fontSize=12;fontColor=#000000;labelBackgroundColor=none;" parent="OMYQMFD3v74kMcFGxbSG-127" vertex="1">
          <mxGeometry y="326" width="240" height="30" as="geometry" />
        </mxCell>
        <mxCell id="OMYQMFD3v74kMcFGxbSG-139" value="&lt;span style=&quot;font-family: &amp;quot;Roboto Mono&amp;quot;, monospace; font-size: 12px; white-space-collapse: preserve;&quot;&gt;+ get_count(): Int&lt;/span&gt;" style="text;strokeColor=none;fillColor=none;align=left;verticalAlign=top;spacingLeft=4;spacingRight=4;overflow=hidden;rotatable=0;points=[[0,0.5],[1,0.5]];portConstraint=eastwest;whiteSpace=wrap;html=1;fontSize=12;fontColor=#000000;labelBackgroundColor=none;" parent="OMYQMFD3v74kMcFGxbSG-127" vertex="1">
          <mxGeometry y="356" width="240" height="26" as="geometry" />
        </mxCell>
        <mxCell id="OMYQMFD3v74kMcFGxbSG-140" value="&lt;span style=&quot;font-weight: 400; font-size: 12px;&quot;&gt;Student_list_DB&lt;/span&gt;" style="swimlane;fontStyle=1;align=center;verticalAlign=top;childLayout=stackLayout;horizontal=1;startSize=26;horizontalStack=0;resizeParent=1;resizeParentMax=0;resizeLast=0;collapsible=1;marginBottom=0;whiteSpace=wrap;html=1;fontSize=12;fontColor=#000000;labelBackgroundColor=none;" parent="1" vertex="1">
          <mxGeometry x="1410" y="970" width="240" height="290" as="geometry" />
        </mxCell>
        <mxCell id="OMYQMFD3v74kMcFGxbSG-141" value="{comp obj} - INSTANCE: Student_list_DB" style="text;strokeColor=none;fillColor=none;align=left;verticalAlign=top;spacingLeft=4;spacingRight=4;overflow=hidden;rotatable=0;points=[[0,0.5],[1,0.5]];portConstraint=eastwest;whiteSpace=wrap;html=1;fontSize=12;fontColor=#000000;labelBackgroundColor=none;" parent="OMYQMFD3v74kMcFGxbSG-140" vertex="1">
          <mxGeometry y="26" width="240" height="26" as="geometry" />
        </mxCell>
        <mxCell id="OMYQMFD3v74kMcFGxbSG-142" value="" style="line;strokeWidth=1;fillColor=none;align=left;verticalAlign=middle;spacingTop=-1;spacingLeft=3;spacingRight=3;rotatable=0;labelPosition=right;points=[];portConstraint=eastwest;strokeColor=inherit;fontSize=12;fontColor=#000000;labelBackgroundColor=none;" parent="OMYQMFD3v74kMcFGxbSG-140" vertex="1">
          <mxGeometry y="52" width="240" height="8" as="geometry" />
        </mxCell>
        <mxCell id="OMYQMFD3v74kMcFGxbSG-143" value="&lt;div style=&quot;font-size: 12px;&quot;&gt;{comp obj} + getInstance(): INSTANCE&lt;/div&gt;" style="text;strokeColor=none;fillColor=none;align=left;verticalAlign=top;spacingLeft=4;spacingRight=4;overflow=hidden;rotatable=0;points=[[0,0.5],[1,0.5]];portConstraint=eastwest;whiteSpace=wrap;html=1;fontSize=12;fontColor=#000000;labelBackgroundColor=none;" parent="OMYQMFD3v74kMcFGxbSG-140" vertex="1">
          <mxGeometry y="60" width="240" height="30" as="geometry" />
        </mxCell>
        <mxCell id="OMYQMFD3v74kMcFGxbSG-144" value="+ executeQuery(query: String): ResultSet?" style="text;strokeColor=none;fillColor=none;align=left;verticalAlign=top;spacingLeft=4;spacingRight=4;overflow=hidden;rotatable=0;points=[[0,0.5],[1,0.5]];portConstraint=eastwest;whiteSpace=wrap;html=1;fontSize=12;fontColor=#000000;labelBackgroundColor=none;" parent="OMYQMFD3v74kMcFGxbSG-140" vertex="1">
          <mxGeometry y="90" width="240" height="26" as="geometry" />
        </mxCell>
        <mxCell id="OMYQMFD3v74kMcFGxbSG-145" value="&lt;span style=&quot;font-size: 12px; white-space-collapse: preserve;&quot;&gt;&lt;font face=&quot;Helvetica&quot;&gt;+ getStudentById(id: Int)&lt;/font&gt;&lt;/span&gt;" style="text;strokeColor=none;fillColor=none;align=left;verticalAlign=top;spacingLeft=4;spacingRight=4;overflow=hidden;rotatable=0;points=[[0,0.5],[1,0.5]];portConstraint=eastwest;whiteSpace=wrap;html=1;fontSize=12;fontColor=#000000;labelBackgroundColor=none;" parent="OMYQMFD3v74kMcFGxbSG-140" vertex="1">
          <mxGeometry y="116" width="240" height="26" as="geometry" />
        </mxCell>
        <mxCell id="OMYQMFD3v74kMcFGxbSG-146" value="&lt;div&gt;+ get_k_n_Student_Short(k: Int, n: Int): MutableList&amp;lt;Student_short&amp;gt;&lt;/div&gt;" style="text;strokeColor=none;fillColor=none;align=left;verticalAlign=top;spacingLeft=4;spacingRight=4;overflow=hidden;rotatable=0;points=[[0,0.5],[1,0.5]];portConstraint=eastwest;whiteSpace=wrap;html=1;fontSize=12;fontColor=#000000;labelBackgroundColor=none;" parent="OMYQMFD3v74kMcFGxbSG-140" vertex="1">
          <mxGeometry y="142" width="240" height="38" as="geometry" />
        </mxCell>
        <mxCell id="OMYQMFD3v74kMcFGxbSG-147" value="&lt;span style=&quot;font-size: 12px; white-space-collapse: preserve;&quot;&gt;+ addStudent(student: Student)&lt;/span&gt;" style="text;strokeColor=none;fillColor=none;align=left;verticalAlign=top;spacingLeft=4;spacingRight=4;overflow=hidden;rotatable=0;points=[[0,0.5],[1,0.5]];portConstraint=eastwest;whiteSpace=wrap;html=1;fontSize=12;fontColor=#000000;labelBackgroundColor=none;fontFamily=Helvetica;" parent="OMYQMFD3v74kMcFGxbSG-140" vertex="1">
          <mxGeometry y="180" width="240" height="26" as="geometry" />
        </mxCell>
        <mxCell id="OMYQMFD3v74kMcFGxbSG-148" value="&lt;span style=&quot;white-space-collapse: preserve;&quot;&gt;+ deleteStudent(id: Int)&lt;/span&gt;" style="text;strokeColor=none;fillColor=none;align=left;verticalAlign=top;spacingLeft=4;spacingRight=4;overflow=hidden;rotatable=0;points=[[0,0.5],[1,0.5]];portConstraint=eastwest;whiteSpace=wrap;html=1;fontSize=12;fontColor=#000000;labelBackgroundColor=none;fontFamily=Helvetica;" parent="OMYQMFD3v74kMcFGxbSG-140" vertex="1">
          <mxGeometry y="206" width="240" height="26" as="geometry" />
        </mxCell>
        <mxCell id="OMYQMFD3v74kMcFGxbSG-151" value="&lt;span style=&quot;font-size: 12px; white-space-collapse: preserve;&quot;&gt;+ getCount(): Int&lt;/span&gt;" style="text;strokeColor=none;fillColor=none;align=left;verticalAlign=top;spacingLeft=4;spacingRight=4;overflow=hidden;rotatable=0;points=[[0,0.5],[1,0.5]];portConstraint=eastwest;whiteSpace=wrap;html=1;fontSize=12;fontColor=#000000;labelBackgroundColor=none;fontFamily=Helvetica;" parent="OMYQMFD3v74kMcFGxbSG-140" vertex="1">
          <mxGeometry y="232" width="240" height="26" as="geometry" />
        </mxCell>
        <mxCell id="OMYQMFD3v74kMcFGxbSG-149" value="&lt;span style=&quot;font-size: 12px; white-space-collapse: preserve;&quot;&gt;+ replaceStudent(id: Int, student: Student)&lt;/span&gt;" style="text;strokeColor=none;fillColor=none;align=left;verticalAlign=top;spacingLeft=4;spacingRight=4;overflow=hidden;rotatable=0;points=[[0,0.5],[1,0.5]];portConstraint=eastwest;whiteSpace=wrap;html=1;fontSize=12;fontColor=#000000;labelBackgroundColor=none;fontFamily=Helvetica;" parent="OMYQMFD3v74kMcFGxbSG-140" vertex="1">
          <mxGeometry y="258" width="240" height="32" as="geometry" />
        </mxCell>
        <mxCell id="dt-0dohF0zVDXLMN0xQF-18" style="edgeStyle=orthogonalEdgeStyle;rounded=0;orthogonalLoop=1;jettySize=auto;html=1;endArrow=block;endFill=0;" edge="1" parent="1" source="dt-0dohF0zVDXLMN0xQF-1" target="OMYQMFD3v74kMcFGxbSG-116">
          <mxGeometry relative="1" as="geometry">
            <Array as="points">
              <mxPoint x="1250" y="810" />
              <mxPoint x="1250" y="810" />
            </Array>
          </mxGeometry>
        </mxCell>
        <mxCell id="dt-0dohF0zVDXLMN0xQF-1" value="&lt;span style=&quot;font-weight: 400; font-size: 12px;&quot;&gt;DBAdapter&lt;/span&gt;" style="swimlane;fontStyle=1;align=center;verticalAlign=top;childLayout=stackLayout;horizontal=1;startSize=26;horizontalStack=0;resizeParent=1;resizeParentMax=0;resizeLast=0;collapsible=1;marginBottom=0;whiteSpace=wrap;html=1;fontSize=12;fontColor=#000000;labelBackgroundColor=none;" vertex="1" parent="1">
          <mxGeometry x="1140" y="830" width="240" height="376" as="geometry" />
        </mxCell>
        <mxCell id="dt-0dohF0zVDXLMN0xQF-2" value="- dbInstance = Student_list_DB.getInstance()" style="text;strokeColor=none;fillColor=none;align=left;verticalAlign=top;spacingLeft=4;spacingRight=4;overflow=hidden;rotatable=0;points=[[0,0.5],[1,0.5]];portConstraint=eastwest;whiteSpace=wrap;html=1;fontSize=12;fontColor=#000000;labelBackgroundColor=none;" vertex="1" parent="dt-0dohF0zVDXLMN0xQF-1">
          <mxGeometry y="26" width="240" height="44" as="geometry" />
        </mxCell>
        <mxCell id="dt-0dohF0zVDXLMN0xQF-4" value="" style="line;strokeWidth=1;fillColor=none;align=left;verticalAlign=middle;spacingTop=-1;spacingLeft=3;spacingRight=3;rotatable=0;labelPosition=right;points=[];portConstraint=eastwest;strokeColor=inherit;fontSize=12;fontColor=#000000;labelBackgroundColor=none;" vertex="1" parent="dt-0dohF0zVDXLMN0xQF-1">
          <mxGeometry y="70" width="240" height="8" as="geometry" />
        </mxCell>
        <mxCell id="dt-0dohF0zVDXLMN0xQF-5" value="&lt;div style=&quot;font-size: 12px;&quot;&gt;&lt;span style=&quot;background-color: initial;&quot;&gt;override +&lt;/span&gt;&lt;span style=&quot;white-space-collapse: preserve; background-color: initial;&quot;&gt; read(path: String): MutableList&amp;lt;Student&amp;gt;&lt;/span&gt;&lt;/div&gt;" style="text;strokeColor=none;fillColor=none;align=left;verticalAlign=top;spacingLeft=4;spacingRight=4;overflow=hidden;rotatable=0;points=[[0,0.5],[1,0.5]];portConstraint=eastwest;whiteSpace=wrap;html=1;fontSize=12;fontColor=#000000;labelBackgroundColor=none;fontFamily=Helvetica;" vertex="1" parent="dt-0dohF0zVDXLMN0xQF-1">
          <mxGeometry y="78" width="240" height="42" as="geometry" />
        </mxCell>
        <mxCell id="dt-0dohF0zVDXLMN0xQF-6" value="override + write(path: String, students: MutableList&amp;lt;Student&amp;gt;" style="text;strokeColor=none;fillColor=none;align=left;verticalAlign=top;spacingLeft=4;spacingRight=4;overflow=hidden;rotatable=0;points=[[0,0.5],[1,0.5]];portConstraint=eastwest;whiteSpace=wrap;html=1;fontSize=12;fontColor=#000000;labelBackgroundColor=none;fontFamily=Helvetica;" vertex="1" parent="dt-0dohF0zVDXLMN0xQF-1">
          <mxGeometry y="120" width="240" height="40" as="geometry" />
        </mxCell>
        <mxCell id="dt-0dohF0zVDXLMN0xQF-7" value="&lt;span style=&quot;font-size: 12px; white-space-collapse: preserve;&quot;&gt;+ findById(id: Int): Student&lt;/span&gt;" style="text;strokeColor=none;fillColor=none;align=left;verticalAlign=top;spacingLeft=4;spacingRight=4;overflow=hidden;rotatable=0;points=[[0,0.5],[1,0.5]];portConstraint=eastwest;whiteSpace=wrap;html=1;fontSize=12;fontColor=#000000;labelBackgroundColor=none;fontFamily=Helvetica;" vertex="1" parent="dt-0dohF0zVDXLMN0xQF-1">
          <mxGeometry y="160" width="240" height="26" as="geometry" />
        </mxCell>
        <mxCell id="dt-0dohF0zVDXLMN0xQF-8" value="&lt;span style=&quot;font-size: 12px; white-space-collapse: preserve;&quot;&gt;+ get_k_n_student_short_list(n: Int, k: Int): List&amp;lt;Student_short&amp;gt;&lt;/span&gt;" style="text;strokeColor=none;fillColor=none;align=left;verticalAlign=top;spacingLeft=4;spacingRight=4;overflow=hidden;rotatable=0;points=[[0,0.5],[1,0.5]];portConstraint=eastwest;whiteSpace=wrap;html=1;fontSize=12;fontColor=#000000;labelBackgroundColor=none;fontFamily=Helvetica;" vertex="1" parent="dt-0dohF0zVDXLMN0xQF-1">
          <mxGeometry y="186" width="240" height="44" as="geometry" />
        </mxCell>
        <mxCell id="dt-0dohF0zVDXLMN0xQF-9" value="&lt;span style=&quot;font-size: 12px; white-space-collapse: preserve;&quot;&gt;+ orderStudents(): List&amp;lt;Student&amp;gt;&lt;/span&gt;" style="text;strokeColor=none;fillColor=none;align=left;verticalAlign=top;spacingLeft=4;spacingRight=4;overflow=hidden;rotatable=0;points=[[0,0.5],[1,0.5]];portConstraint=eastwest;whiteSpace=wrap;html=1;fontSize=12;fontColor=#000000;labelBackgroundColor=none;fontFamily=Helvetica;" vertex="1" parent="dt-0dohF0zVDXLMN0xQF-1">
          <mxGeometry y="230" width="240" height="26" as="geometry" />
        </mxCell>
        <mxCell id="dt-0dohF0zVDXLMN0xQF-10" value="&lt;span style=&quot;font-size: 12px; white-space-collapse: preserve;&quot;&gt;+ addStudent(newSt: Student)&lt;/span&gt;" style="text;strokeColor=none;fillColor=none;align=left;verticalAlign=top;spacingLeft=4;spacingRight=4;overflow=hidden;rotatable=0;points=[[0,0.5],[1,0.5]];portConstraint=eastwest;whiteSpace=wrap;html=1;fontSize=12;fontColor=#000000;labelBackgroundColor=none;fontFamily=Helvetica;" vertex="1" parent="dt-0dohF0zVDXLMN0xQF-1">
          <mxGeometry y="256" width="240" height="26" as="geometry" />
        </mxCell>
        <mxCell id="dt-0dohF0zVDXLMN0xQF-11" value="&lt;span style=&quot;font-size: 12px; white-space-collapse: preserve;&quot;&gt;+ replaceStudentById(id: Int, updSt: Student): Boolean&lt;/span&gt;" style="text;strokeColor=none;fillColor=none;align=left;verticalAlign=top;spacingLeft=4;spacingRight=4;overflow=hidden;rotatable=0;points=[[0,0.5],[1,0.5]];portConstraint=eastwest;whiteSpace=wrap;html=1;fontSize=12;fontColor=#000000;labelBackgroundColor=none;fontFamily=Helvetica;" vertex="1" parent="dt-0dohF0zVDXLMN0xQF-1">
          <mxGeometry y="282" width="240" height="38" as="geometry" />
        </mxCell>
        <mxCell id="dt-0dohF0zVDXLMN0xQF-12" value="&lt;span style=&quot;font-size: 12px; white-space-collapse: preserve;&quot;&gt;+ removeById(id: Int)&lt;/span&gt;" style="text;strokeColor=none;fillColor=none;align=left;verticalAlign=top;spacingLeft=4;spacingRight=4;overflow=hidden;rotatable=0;points=[[0,0.5],[1,0.5]];portConstraint=eastwest;whiteSpace=wrap;html=1;fontSize=12;fontColor=#000000;labelBackgroundColor=none;fontFamily=Helvetica;" vertex="1" parent="dt-0dohF0zVDXLMN0xQF-1">
          <mxGeometry y="320" width="240" height="30" as="geometry" />
        </mxCell>
        <mxCell id="dt-0dohF0zVDXLMN0xQF-13" value="&lt;span style=&quot;font-size: 12px; white-space-collapse: preserve;&quot;&gt;+ get_count(): Int&lt;/span&gt;" style="text;strokeColor=none;fillColor=none;align=left;verticalAlign=top;spacingLeft=4;spacingRight=4;overflow=hidden;rotatable=0;points=[[0,0.5],[1,0.5]];portConstraint=eastwest;whiteSpace=wrap;html=1;fontSize=12;fontColor=#000000;labelBackgroundColor=none;fontFamily=Helvetica;" vertex="1" parent="dt-0dohF0zVDXLMN0xQF-1">
          <mxGeometry y="350" width="240" height="26" as="geometry" />
        </mxCell>
      </root>
    </mxGraphModel>
  </diagram>
</mxfile>
